# xmcd
#
# Track frame offsets: 
#        150
#        22893
#        49952
#        66354
#        79869
#        97497
#        109214
#        127090
#        145207
#        164786
#        176563
#        190477
#        203815
#        218532
#        238605
#        255310
#        268921
#        283458
#        295222
#        314854
#        332888
#
# Disc length: 4661 seconds
#
# Revision: 0
# Processed by: cddbd v1.5.2PL0 Copyright (c) Steve Scherf et al.
# Submitted via: ExactAudioCopy v0.99pb4
#
DISCID=61123315
DTITLE=Various Artist - Radio 2 - Het Beste Uit De Explosieve 1000 - CD 5
DYEAR=2012
DGENRE=Pop
TTITLE0=Golden Earring - Radar Love
TTITLE1=Michel Sardou - Les Lacs Du Connemara
TTITLE2=Kenny Loggins - Footloose
TTITLE3=Liliane Saint-Pierre - Soldiers Of Love
TTITLE4=Ike and Tina Turner - River Deep Mountain High
TTITLE5=Johnny Cash - Ring Of Fire
TTITLE6=Survivor - Eye Of The Tiger
TTITLE7=Mumford and Sons - Little Lion Man
TTITLE8=Rob De Nijs - Banger Hart
TTITLE9=Them - Gloria
TTITLE10=Mika - Grace Kelly
TTITLE11=De Romeo's - Viva De Romeo's
TTITLE12=2 Unlimited - No Limit
TTITLE13=Hanson - MmmBop
TTITLE14=Los Del Rio - Macarena
TTITLE15=I'm From Barcelona - We're From Barcelona
TTITLE16=The Blues Brothers Vocals Aretha Franklin - Think
TTITLE17=Yolanda Be Cool and DCup - We No Speak Americano
TTITLE18=Yevgueni - Als Ze Lacht
TTITLE19=Dexys Midnight Runners and The Emerald Express - Come On Eileen
TTITLE20=Dan Hartman - Relight My Fire
EXTD=
EXTT0=
EXTT1=
EXTT2=
EXTT3=
EXTT4=
EXTT5=
EXTT6=
EXTT7=
EXTT8=
EXTT9=
EXTT10=
EXTT11=
EXTT12=
EXTT13=
EXTT14=
EXTT15=
EXTT16=
EXTT17=
EXTT18=
EXTT19=
EXTT20=
PLAYORDER=
